<mxfile host="app.diagrams.net" modified="2023-11-08T09:42:31.979Z" agent="Mozilla/5.0 (Windows NT 10.0; Win64; x64) AppleWebKit/537.36 (KHTML, like Gecko) Chrome/119.0.0.0 Safari/537.36" etag="J6mvcpZjV3YfK0n_90BE" version="22.0.8" type="google">
  <diagram id="C5RBs43oDa-KdzZeNtuy" name="Page-1">
    <mxGraphModel grid="1" page="1" gridSize="18" guides="1" tooltips="1" connect="1" arrows="1" fold="1" pageScale="1" pageWidth="827" pageHeight="1169" math="0" shadow="0">
      <root>
        <mxCell id="WIyWlLk6GJQsqaUBKTNV-0" />
        <mxCell id="WIyWlLk6GJQsqaUBKTNV-1" parent="WIyWlLk6GJQsqaUBKTNV-0" />
        <mxCell id="LEuJTk9EinTiKlrk9m23-55" style="edgeStyle=orthogonalEdgeStyle;rounded=0;orthogonalLoop=1;jettySize=auto;html=1;" edge="1" parent="WIyWlLk6GJQsqaUBKTNV-1" source="LEuJTk9EinTiKlrk9m23-54" target="LEuJTk9EinTiKlrk9m23-56">
          <mxGeometry relative="1" as="geometry">
            <mxPoint x="258" y="-936" as="targetPoint" />
          </mxGeometry>
        </mxCell>
        <mxCell id="LEuJTk9EinTiKlrk9m23-54" value="Utilisateur tape une recherche dans la barre principale" style="rounded=0;whiteSpace=wrap;html=1;" vertex="1" parent="WIyWlLk6GJQsqaUBKTNV-1">
          <mxGeometry x="198" y="-1080" width="120" height="60" as="geometry" />
        </mxCell>
        <mxCell id="LEuJTk9EinTiKlrk9m23-57" style="edgeStyle=orthogonalEdgeStyle;rounded=0;orthogonalLoop=1;jettySize=auto;html=1;" edge="1" parent="WIyWlLk6GJQsqaUBKTNV-1" source="LEuJTk9EinTiKlrk9m23-56" target="LEuJTk9EinTiKlrk9m23-58">
          <mxGeometry relative="1" as="geometry">
            <mxPoint x="414" y="-902" as="targetPoint" />
          </mxGeometry>
        </mxCell>
        <mxCell id="LEuJTk9EinTiKlrk9m23-56" value="La valeur de sa recherche est supérieure a 3" style="rhombus;whiteSpace=wrap;html=1;fillColor=#f8cecc;strokeColor=#b85450;" vertex="1" parent="WIyWlLk6GJQsqaUBKTNV-1">
          <mxGeometry x="187" y="-976" width="142" height="148" as="geometry" />
        </mxCell>
        <mxCell id="LEuJTk9EinTiKlrk9m23-59" style="edgeStyle=orthogonalEdgeStyle;rounded=0;orthogonalLoop=1;jettySize=auto;html=1;" edge="1" parent="WIyWlLk6GJQsqaUBKTNV-1" source="LEuJTk9EinTiKlrk9m23-58" target="LEuJTk9EinTiKlrk9m23-60">
          <mxGeometry relative="1" as="geometry">
            <mxPoint x="414" y="-810" as="targetPoint" />
          </mxGeometry>
        </mxCell>
        <mxCell id="LEuJTk9EinTiKlrk9m23-58" value="Récupération des recettes&amp;nbsp;" style="rounded=0;whiteSpace=wrap;html=1;" vertex="1" parent="WIyWlLk6GJQsqaUBKTNV-1">
          <mxGeometry x="354" y="-932" width="120" height="60" as="geometry" />
        </mxCell>
        <mxCell id="LEuJTk9EinTiKlrk9m23-62" style="edgeStyle=orthogonalEdgeStyle;rounded=0;orthogonalLoop=1;jettySize=auto;html=1;" edge="1" parent="WIyWlLk6GJQsqaUBKTNV-1" source="LEuJTk9EinTiKlrk9m23-60" target="LEuJTk9EinTiKlrk9m23-63">
          <mxGeometry relative="1" as="geometry">
            <mxPoint x="413.5" y="-612" as="targetPoint" />
          </mxGeometry>
        </mxCell>
        <mxCell id="LEuJTk9EinTiKlrk9m23-64" style="edgeStyle=orthogonalEdgeStyle;rounded=0;orthogonalLoop=1;jettySize=auto;html=1;" edge="1" parent="WIyWlLk6GJQsqaUBKTNV-1" source="LEuJTk9EinTiKlrk9m23-60" target="LEuJTk9EinTiKlrk9m23-65">
          <mxGeometry relative="1" as="geometry">
            <mxPoint x="558" y="-747" as="targetPoint" />
          </mxGeometry>
        </mxCell>
        <mxCell id="LEuJTk9EinTiKlrk9m23-60" value="Les recettes inclues le resultat de la requette" style="rhombus;whiteSpace=wrap;html=1;" vertex="1" parent="WIyWlLk6GJQsqaUBKTNV-1">
          <mxGeometry x="337.5" y="-828" width="153" height="162" as="geometry" />
        </mxCell>
        <mxCell id="LEuJTk9EinTiKlrk9m23-63" value="Les recettes sont affiches" style="rounded=0;whiteSpace=wrap;html=1;" vertex="1" parent="WIyWlLk6GJQsqaUBKTNV-1">
          <mxGeometry x="354" y="-614.5" width="120" height="60" as="geometry" />
        </mxCell>
        <mxCell id="LEuJTk9EinTiKlrk9m23-66" style="edgeStyle=orthogonalEdgeStyle;rounded=0;orthogonalLoop=1;jettySize=auto;html=1;entryX=0.5;entryY=1;entryDx=0;entryDy=0;" edge="1" parent="WIyWlLk6GJQsqaUBKTNV-1" source="LEuJTk9EinTiKlrk9m23-65" target="LEuJTk9EinTiKlrk9m23-56">
          <mxGeometry relative="1" as="geometry">
            <Array as="points">
              <mxPoint x="618" y="-486" />
              <mxPoint x="258" y="-486" />
            </Array>
          </mxGeometry>
        </mxCell>
        <mxCell id="LEuJTk9EinTiKlrk9m23-65" value="Affichage message d&#39;erreur" style="rounded=0;whiteSpace=wrap;html=1;" vertex="1" parent="WIyWlLk6GJQsqaUBKTNV-1">
          <mxGeometry x="558" y="-777" width="120" height="60" as="geometry" />
        </mxCell>
        <mxCell id="LEuJTk9EinTiKlrk9m23-67" value="Yes" style="text;html=1;strokeColor=none;fillColor=none;align=center;verticalAlign=middle;whiteSpace=wrap;rounded=0;" vertex="1" parent="WIyWlLk6GJQsqaUBKTNV-1">
          <mxGeometry x="354" y="-666" width="60" height="30" as="geometry" />
        </mxCell>
        <mxCell id="LEuJTk9EinTiKlrk9m23-70" value="No" style="text;html=1;strokeColor=none;fillColor=none;align=center;verticalAlign=middle;whiteSpace=wrap;rounded=0;" vertex="1" parent="WIyWlLk6GJQsqaUBKTNV-1">
          <mxGeometry x="490.5" y="-738" width="60" height="30" as="geometry" />
        </mxCell>
      </root>
    </mxGraphModel>
  </diagram>
</mxfile>
